<?xml version="1.0" encoding="UTF-8"?>
<svg version="1.1" xmlns="http://www.w3.org/2000/svg" width="375" height="257">
<path d="M0 0 C1.16181486 -0.00256327 1.16181486 -0.00256327 2.34710073 -0.00517833 C4.92042134 -0.00845028 7.49347622 0.00249226 10.06677246 0.01345825 C11.92014561 0.01402286 13.7735192 0.01370483 15.62689209 0.01257324 C20.64282677 0.01200068 25.65866532 0.02373944 30.67457771 0.03772116 C35.92228835 0.05024454 41.17000133 0.05140029 46.41772461 0.05377197 C56.34811661 0.05998201 66.27846445 0.07638641 76.20883703 0.09647095 C87.51714462 0.11884476 98.82545435 0.12982711 110.13377857 0.13986182 C133.38946245 0.16075304 156.64510717 0.19591978 179.90075684 0.24050903 C179.99451205 15.79237591 180.06488793 31.34419096 180.10800552 46.89627361 C180.12856467 54.11861855 180.15655665 61.34078712 180.20251465 68.5630188 C180.24258761 74.86347085 180.26823786 81.16379506 180.27711082 87.46437103 C180.28229143 90.79559023 180.29647652 94.12615641 180.32367706 97.45731163 C180.35293624 101.19084247 180.35670331 104.92362908 180.3548584 108.65725708 C180.3692395 109.74195786 180.38362061 110.82665863 180.3984375 111.94422913 C180.32595306 125.60077626 175.81200903 137.5383565 166.68200684 147.71316528 C157.59015541 156.55410522 146.81559929 161.41123984 134.206604 161.36076355 C133.03766503 161.36204519 133.03766503 161.36204519 131.84511113 161.36335272 C129.23180044 161.36500086 126.61855381 161.35949701 124.00524902 161.35403442 C122.13276165 161.35375238 120.26027417 161.35391062 118.38778687 161.35447693 C113.30139943 161.35476424 108.21503549 161.34887813 103.12865353 161.34190297 C97.81418412 161.33565849 92.4997142 161.33506477 87.1852417 161.33387756 C77.1201518 161.33076749 67.05507274 161.32255844 56.98998761 161.31252807 C45.53183137 161.30135692 34.07367461 161.29585395 22.61551428 161.29083264 C-0.95607755 161.28037557 -24.52765975 161.26278236 -48.09924316 161.24050903 C-48.19299448 145.55824859 -48.26337233 129.87606473 -48.30649185 114.19359303 C-48.32705183 106.91071474 -48.35504543 99.62801134 -48.40100098 92.34524536 C-48.44107137 85.99205561 -48.4667236 79.63899262 -48.47559714 73.28568 C-48.48077818 69.92651714 -48.49496541 66.5680018 -48.52216339 63.20890236 C-48.55141861 59.44424024 -48.5551898 55.68031629 -48.55334473 51.91555786 C-48.56772583 50.82150635 -48.58210693 49.72745483 -48.59692383 48.60025024 C-48.53147434 36.16898386 -45.03292412 25.81856403 -37.09924316 16.24050903 C-36.59908691 15.60500122 -36.09893066 14.96949341 -35.58361816 14.31472778 C-26.92719978 4.45602907 -12.78490484 -0.10516982 0 0 Z M-27.09924316 27.24050903 C-30.7790047 33.10347837 -33.22783002 38.74189887 -33.21949768 45.70773315 C-33.22087234 46.59671799 -33.22224701 47.48570282 -33.22366333 48.40162659 C-33.22006805 49.36907303 -33.21647278 50.33651947 -33.21276855 51.33328247 C-33.21291458 52.35799149 -33.21306061 53.3827005 -33.21321106 54.4384613 C-33.21251437 57.82562374 -33.20473331 61.2127312 -33.19689941 64.59988403 C-33.19503437 66.94829274 -33.19361087 69.29670184 -33.19261169 71.64511108 C-33.18879332 77.8264778 -33.17896881 84.00782103 -33.16790771 90.18917847 C-33.157679 96.49665001 -33.15311094 102.80412534 -33.14807129 109.11160278 C-33.13734596 121.48791519 -33.12027766 133.86421016 -33.09924316 146.24050903 C-10.71559258 146.33404309 11.66802568 146.40453271 34.0518322 146.44775772 C44.44555071 146.4683633 54.83914763 146.4964456 65.23278809 146.54226685 C74.29424979 146.58219595 83.35562341 146.60795641 92.41717064 146.61686301 C97.21307859 146.62206747 102.00873459 146.63425803 106.80456161 146.66342926 C111.32387782 146.69069438 115.84283966 146.6989317 120.3622303 146.69293976 C122.01575843 146.69403505 123.66929911 146.70192266 125.32275581 146.71733093 C137.10658166 146.8217032 147.08361814 145.86326376 156.07653809 137.43582153 C163.48213042 128.52373826 165.05662596 119.34940277 165.01428223 108.21780396 C165.01450127 106.7097821 165.01450127 106.7097821 165.01472473 105.17129517 C165.01402911 101.85450061 165.00625308 98.5377625 164.99841309 95.22097778 C164.99654766 92.91883881 164.99512435 90.61669945 164.99412537 88.31455994 C164.99030999 82.25979514 164.98048804 76.20505438 164.96942139 70.15029907 C164.95918623 63.97008591 164.95462323 57.78986886 164.94958496 51.60964966 C164.93886492 39.48659223 164.92180022 27.36355263 164.90075684 15.24050903 C142.66476109 15.14694777 120.42879793 15.07647207 98.19264507 15.03326035 C87.86733598 15.01266051 77.54214939 14.98458928 67.21691895 14.93875122 C58.21441129 14.89880444 49.21199239 14.87305749 40.20939857 14.86415505 C35.44531596 14.85895357 30.68148721 14.84678216 25.91748619 14.81758881 C21.42689344 14.79029567 16.93665743 14.78209194 12.44598961 14.78807831 C10.80416928 14.78698426 9.16233614 14.77911348 7.52058792 14.76368713 C-6.16646062 14.64146478 -17.7655151 16.2574475 -27.09924316 27.24050903 Z " fill="#6300CC" transform="translate(176.0992431640625,51.759490966796875)"/>
<path d="M0 0 C4.11060201 1.58100077 6.21420529 3.90405847 9.1953125 7.08203125 C11.05273278 9.04185683 12.95145611 10.8072124 15 12.5625 C18.48078231 15.55679502 21.87421565 18.63845772 25.25 21.75 C29.21047227 25.39631497 33.20436404 28.99467544 37.2734375 32.51953125 C39.54197508 34.50562246 41.76949746 36.53380483 44 38.5625 C45.74646771 40.12894719 47.49668683 41.69121869 49.25 43.25 C49.74081055 43.68844238 50.23162109 44.12688477 50.73730469 44.57861328 C58.45308875 51.42373512 65.06097264 57.09740216 75.91015625 56.578125 C86.51078661 55.09155914 92.91700186 48.38948847 100.25 41.25 C101.61422065 40.02950974 102.98775797 38.81925876 104.375 37.625 C109.0564581 33.56257768 113.64921695 29.40329047 118.25 25.25 C120.74760234 23.00137982 123.24596552 20.75362409 125.74609375 18.5078125 C127.43148281 16.9880701 129.1110851 15.46188822 130.78515625 13.9296875 C134.81378285 10.25597854 138.8760409 6.61833673 143.0625 3.125 C143.74957031 2.54492188 144.43664062 1.96484375 145.14453125 1.3671875 C147.25 0.25 147.25 0.25 149.88671875 0.4453125 C152.25 1.25 152.25 1.25 154.25 3.25 C154.71875 6.00390625 154.71875 6.00390625 154.25 9.25 C152.46372873 11.50963316 150.84739186 13.2702235 148.75 15.1875 C148.19900635 15.71327637 147.6480127 16.23905273 147.08032227 16.78076172 C143.57400191 20.10307842 139.98918835 23.33981139 136.3125 26.47265625 C133.72433035 28.70299184 131.20885493 31.00696757 128.6875 33.3125 C124.60386482 37.03782178 120.47303826 40.68387881 116.25 44.25 C117.81098042 48.24536654 120.60840789 50.61066502 123.75 53.375 C129.60813261 58.68127954 135.34655409 64.1010653 141 69.625 C141.79857422 70.38570801 142.59714844 71.14641602 143.41992188 71.93017578 C148.98362925 77.41064469 148.98362925 77.41064469 150.3359375 81.671875 C150.25 84.25 150.25 84.25 149.125 86.125 C146.60471084 87.6371735 145.16272709 87.57864959 142.25 87.25 C140.03564453 85.74047852 140.03564453 85.74047852 137.7578125 83.56640625 C136.88930664 82.74414551 136.02080078 81.92188477 135.12597656 81.07470703 C134.16547541 80.13501743 133.2069008 79.19335563 132.25 78.25 C131.73900757 77.74974304 131.22801514 77.24948608 130.70153809 76.73406982 C126.81047797 72.91703331 122.96443823 69.05634433 119.125 65.1875 C117.96638288 64.02385247 116.8075301 62.86043954 115.6484375 61.69726562 C112.84624236 58.88419935 110.04722686 56.06800626 107.25 53.25 C105.99527319 54.18379427 104.74156961 55.1189635 103.48828125 56.0546875 C102.44087769 56.83561768 102.44087769 56.83561768 101.37231445 57.63232422 C99.35487644 59.17006082 97.39500383 60.76214237 95.4375 62.375 C87.20519082 68.4730068 78.344614 70.32187434 68.25 69.25 C57.36044272 67.56080663 49.34679931 60.25263724 41.25 53.25 C40.198125 54.31927734 40.198125 54.31927734 39.125 55.41015625 C38.16680707 56.37774323 37.20846561 57.34518313 36.25 58.3125 C35.79238281 58.77849609 35.33476562 59.24449219 34.86328125 59.72460938 C32.1316428 62.47495768 29.32536859 65.07007561 26.37890625 67.58984375 C23.49116755 70.08529752 20.82326821 72.6826943 18.21484375 75.46875 C17.55033203 76.17257813 16.88582031 76.87640625 16.20117188 77.6015625 C14.84124593 79.05250191 13.49512494 80.51648656 12.16210938 81.9921875 C10.26602368 83.9748777 8.5267408 85.71807297 6.25 87.25 C2.31640625 87.28125 2.31640625 87.28125 -0.75 86.25 C-1.75 85.25 -1.75 85.25 -2.27734375 82.68896484 C-1.4621239 77.37267467 1.90370393 74.85280288 5.6875 71.2265625 C6.81949829 70.10729874 6.81949829 70.10729874 7.97436523 68.96542358 C10.38585575 66.58749524 12.81737044 64.23127976 15.25 61.875 C16.88938444 60.26571085 18.52742271 58.65504912 20.1640625 57.04296875 C24.17722888 53.0959244 28.20703472 49.16650313 32.25 45.25 C28.22272081 41.20247024 24.11425476 37.26670212 19.9375 33.375 C19.26887939 32.75149658 18.60025879 32.12799316 17.91137695 31.4855957 C14.62251404 28.42738968 11.32454996 25.38728736 7.9375 22.4375 C7.35226563 21.92703125 6.76703125 21.4165625 6.1640625 20.890625 C4.65117733 19.59386628 3.12147307 18.31673139 1.5859375 17.046875 C0.67070312 16.26828125 -0.24453125 15.4896875 -1.1875 14.6875 C-2.03183594 13.98496094 -2.87617188 13.28242187 -3.74609375 12.55859375 C-6.18433628 9.74962428 -6.59981878 7.9344459 -6.75 4.25 C-4.76748502 1.15727664 -3.6712166 0.33374696 0 0 Z " fill="#6300CC" transform="translate(167.75,88.75)"/>
<path d="M0 0 C1.28483276 -0.00945648 2.56966553 -0.01891296 3.89343262 -0.02865601 C5.28768219 -0.02328598 6.68192893 -0.01713295 8.07617188 -0.01025391 C9.51436511 -0.01227639 10.95255734 -0.01518928 12.39074707 -0.01895142 C15.40008337 -0.0233666 18.40915193 -0.01696998 21.41845703 -0.00292969 C25.26868249 0.01416208 29.11828051 0.00431653 32.96848297 -0.01364708 C35.93683569 -0.02450691 38.90504057 -0.02102857 41.87339783 -0.0132637 C43.29272029 -0.01126776 44.71205633 -0.01369966 46.13136292 -0.02070236 C48.11752045 -0.02835215 50.10372528 -0.01461801 52.08984375 0 C53.21837769 0.00238678 54.34691162 0.00477356 55.50964355 0.00723267 C58.93293861 0.4368827 60.81499854 1.30260121 63.54492188 3.38818359 C64.66992188 6.26318359 64.66992188 6.26318359 64.54492188 9.38818359 C61.99877175 12.62965083 60.48118936 14.20181736 56.38902283 15.01637268 C55.20417801 15.01733444 54.01933319 15.0182962 52.79858398 15.01928711 C52.14103622 15.02644241 51.48348846 15.03359772 50.80601501 15.04096985 C48.64404695 15.05780603 46.48416753 15.03849066 44.32226562 15.01708984 C42.81441578 15.01791893 41.30656603 15.02037983 39.79872131 15.0243988 C36.64377531 15.02725314 33.48954068 15.01259086 30.3347168 14.98510742 C26.2936364 14.95099474 22.25382517 14.95705533 18.21268368 14.97577 C15.1010533 14.98634425 11.98971767 14.97739905 8.8781147 14.96238518 C7.38819822 14.95720792 5.89825091 14.95767966 4.40833855 14.96393013 C2.32550848 14.96938917 0.24448886 14.94899151 -1.83813477 14.92163086 C-3.02218399 14.91543228 -4.20623322 14.9092337 -5.42616272 14.90284729 C-9.07574383 14.28272205 -10.29696306 13.35910412 -12.45507812 10.38818359 C-12.51757812 6.82568359 -12.51757812 6.82568359 -11.45507812 3.38818359 C-7.66409017 0.42513038 -4.73967058 0.01002411 0 0 Z " fill="#6300CC" transform="translate(48.455078125,84.61181640625)"/>
<path d="M0 0 C1.30823227 -0.01268417 2.61646454 -0.02536835 3.96434021 -0.03843689 C5.39427854 -0.03638538 6.82421579 -0.0333973 8.25415039 -0.02954102 C9.72001895 -0.03410174 11.18588536 -0.03940699 12.65174866 -0.04542542 C15.72430099 -0.05436212 18.79659349 -0.05192751 21.86914062 -0.04199219 C25.80484005 -0.0305054 29.73964187 -0.05070546 33.67522335 -0.07990932 C36.70274037 -0.09826523 39.73004208 -0.09798011 42.75760078 -0.0922718 C44.20846376 -0.09211849 45.65934123 -0.09817118 47.11015129 -0.11056328 C49.13979037 -0.12545575 51.16957697 -0.11217523 53.19921875 -0.09765625 C54.3537706 -0.09749008 55.50832245 -0.09732391 56.69786072 -0.09715271 C60.31191528 0.51347154 61.51791115 1.4712943 63.66430664 4.40405273 C63.78930664 7.96655273 63.78930664 7.96655273 62.66430664 11.40405273 C58.55334363 13.99066186 55.37052402 14.77928887 50.5546875 14.77636719 C49.37003403 14.78259598 48.18538055 14.78882477 46.96482849 14.79524231 C45.69905472 14.78603256 44.43328094 14.77682281 43.12915039 14.76733398 C41.81773575 14.76783249 40.50632111 14.76833099 39.15516663 14.7688446 C36.38718061 14.76875518 33.61948767 14.75838634 30.8515625 14.74023438 C27.31197578 14.71752579 23.7728158 14.71701029 20.23317623 14.72375202 C16.84428599 14.72790482 13.45552596 14.71591542 10.06665039 14.70483398 C8.79885239 14.70574539 7.53105438 14.7066568 6.22483826 14.70759583 C5.04333694 14.69806381 3.86183563 14.6885318 2.64453125 14.67871094 C1.60783798 14.67410355 0.57114471 14.66949615 -0.4969635 14.66474915 C-3.4907165 14.38981609 -5.65866839 13.75903523 -8.33569336 12.40405273 C-9.86061334 9.35421278 -9.57131884 6.76171584 -9.33569336 3.40405273 C-6.91294143 -0.26888766 -4.15998373 0.019481 0 0 Z " fill="#6300CC" transform="translate(12.335693359375,125.595947265625)"/>
<path d="M0 0 C1.43653931 -0.00786278 1.43653931 -0.00786278 2.90209961 -0.0158844 C4.92267896 -0.02229492 6.94329567 -0.02098019 8.96386719 -0.01245117 C12.05210853 -0.00393491 15.13850345 -0.03272649 18.2265625 -0.06445312 C20.19270778 -0.06606515 22.15885633 -0.06548759 24.125 -0.0625 C25.04595459 -0.07373398 25.96690918 -0.08496796 26.91577148 -0.09654236 C31.12047237 -0.05091044 33.47683005 0.08534383 37.15625 2.27319336 C39.0625 4.43359375 39.0625 4.43359375 39.5 7.49609375 C39.0625 10.43359375 39.0625 10.43359375 37.0625 13.43359375 C34.27175837 14.36384096 32.54166725 14.56947554 29.65454102 14.59472656 C28.3228463 14.60913788 28.3228463 14.60913788 26.96424866 14.62384033 C26.00796066 14.62809021 25.05167267 14.63234009 24.06640625 14.63671875 C23.08131577 14.64241882 22.09622528 14.6481189 21.08128357 14.6539917 C18.99747796 14.66343809 16.91365744 14.66997425 14.82983398 14.67382812 C11.64084919 14.68354546 8.45250572 14.71457721 5.26367188 14.74609375 C3.23958716 14.75262276 1.21549784 14.75787363 -0.80859375 14.76171875 C-1.76285751 14.77406555 -2.71712128 14.78641235 -3.70030212 14.7991333 C-4.59125076 14.7961322 -5.4821994 14.7931311 -6.40014648 14.79003906 C-7.18163559 14.79368469 -7.96312469 14.79733032 -8.76829529 14.80108643 C-11.51205497 14.33625635 -12.89895329 13.29409811 -14.9375 11.43359375 C-15.50390625 9.49609375 -15.50390625 9.49609375 -15.5 7.43359375 C-15.52191406 6.75296875 -15.54382812 6.07234375 -15.56640625 5.37109375 C-14.9375 3.43359375 -14.9375 3.43359375 -13.01928711 1.83959961 C-8.65827603 -0.15002749 -4.7415292 -0.01511412 0 0 Z " fill="#6300CC" transform="translate(54.9375,165.56640625)"/>
</svg>
